<svg width="47" height="47" viewBox="0 0 47 47" fill="none" xmlns="http://www.w3.org/2000/svg">
<path d="M44.5954 36.2616C42.8776 34.5309 38.7172 32.0052 36.6986 30.9874C34.0699 29.6634 33.8536 29.5552 31.7874 31.0901C30.4093 32.1145 29.493 33.0296 27.8801 32.6856C26.2672 32.3416 22.7623 30.4022 19.6934 27.3432C16.6244 24.2842 14.5723 20.6778 14.2273 19.0704C13.8822 17.4631 14.8125 16.5577 15.8272 15.1764C17.2573 13.2293 17.1491 12.9048 15.9267 10.2763C14.9737 8.23196 12.3742 4.11074 10.6369 2.40168C8.77845 0.566061 8.77845 0.890566 7.58095 1.38814C6.606 1.79822 5.67069 2.2968 4.78677 2.87762C3.05596 4.02745 2.09536 4.98258 1.42359 6.41797C0.751815 7.85337 0.450005 11.2185 3.9192 17.5204C7.3884 23.8223 9.82235 27.0446 14.8601 32.068C19.8978 37.0913 23.7716 39.7923 29.4346 42.9681C36.4401 46.8914 39.1272 46.1266 40.567 45.456C42.0068 44.7853 42.9663 43.8334 44.1184 42.1027C44.7007 41.2203 45.2004 40.2861 45.6112 39.312C46.1099 38.1189 46.4344 38.1189 44.5954 36.2616Z" stroke="#699BF7" stroke-width="1.5" stroke-miterlimit="10"/>
</svg>
