<svg width="47" height="55" viewBox="0 0 47 55" fill="none" xmlns="http://www.w3.org/2000/svg">
<path d="M25.1801 53.4719C24.6897 53.8154 24.1024 54 23.5 54C22.8976 54 22.3103 53.8154 21.8199 53.4719C7.33253 43.3368 -8.04292 22.4894 7.50053 7.42502C11.7662 3.30299 17.5138 0.994891 23.5 1.00001C29.5002 1.00001 35.2573 3.31148 39.4995 7.42208C55.0429 22.4864 39.6675 43.3309 25.1801 53.4719Z" stroke="#699BF7" stroke-width="1.5" stroke-linecap="round" stroke-linejoin="round"/>
<path d="M23.4999 27.5009C25.0913 27.5009 26.6174 26.8804 27.7427 25.776C28.8679 24.6716 29.5001 23.1736 29.5001 21.6118C29.5001 20.0499 28.8679 18.552 27.7427 17.4475C26.6174 16.3431 25.0913 15.7227 23.4999 15.7227C21.9086 15.7227 20.3824 16.3431 19.2572 17.4475C18.1319 18.552 17.4998 20.0499 17.4998 21.6118C17.4998 23.1736 18.1319 24.6716 19.2572 25.776C20.3824 26.8804 21.9086 27.5009 23.4999 27.5009Z" stroke="#699BF7" stroke-width="1.5" stroke-linecap="round" stroke-linejoin="round"/>
</svg>
