<svg width="50" height="38" viewBox="0 0 50 38" fill="none" xmlns="http://www.w3.org/2000/svg">
<path d="M4.48889 38C3.20926 38 2.14167 37.582 1.28611 36.746C0.430556 35.91 0.00185185 34.8659 0 33.6137V4.38629C0 3.1359 0.428704 2.09271 1.28611 1.25671C2.14352 0.420714 3.21018 0.00180952 4.48611 0H45.5139C46.7917 0 47.8583 0.418904 48.7139 1.25671C49.5694 2.09452 49.9982 3.13771 50 4.38629V33.6164C50 34.865 49.5713 35.9082 48.7139 36.746C47.8565 37.5838 46.7898 38.0018 45.5139 38H4.48889ZM25 19.3149L2.77778 5.11643V33.6164C2.77778 34.1032 2.93796 34.5031 3.25833 34.8161C3.5787 35.1292 3.98889 35.2857 4.48889 35.2857H45.5139C46.012 35.2857 46.4213 35.1292 46.7417 34.8161C47.062 34.5031 47.2222 34.1023 47.2222 33.6137V5.11371L25 19.3149ZM25 16.2857L46.3667 2.71429H3.63333L25 16.2857ZM2.77778 5.11643V2.71429V33.6164C2.77778 34.1032 2.93796 34.5031 3.25833 34.8161C3.5787 35.1292 3.98889 35.2857 4.48889 35.2857H2.77778V5.11643Z" fill="#699BF7"/>
</svg>
