<svg width="140" height="45" viewBox="0 0 140 45" fill="none" xmlns="http://www.w3.org/2000/svg">
<path d="M131.404 4.21358C131.404 6.20003 133.035 7.89616 135.3 7.89616C137.453 7.89616 139.138 6.20003 139.138 4.21358C139.138 2.21566 137.449 0.649414 135.3 0.649414C133.035 0.649414 131.404 2.21566 131.404 4.21358ZM55.0166 4.20593V13.2558C52.8755 12.3542 49.6373 11.51 46.5099 11.51C38.1389 11.51 33.3349 16.1514 32.6239 23.6388C32.4308 25.8163 32.4308 30.0986 32.6239 32.2111C33.339 39.6336 38.6608 44.6456 47.4263 44.6456C53.7221 44.6456 58.9781 42.0479 60.6672 40.8981C61.711 40.2372 61.9 39.5687 61.9 38.4838V4.20212C61.9 2.3952 60.4041 0.943558 58.4562 0.943558C56.5782 0.947378 55.0166 2.39902 55.0166 4.20593ZM39.4991 31.428C39.3183 29.5562 39.3758 25.9996 39.4991 24.3685C39.758 19.9639 42.1045 17.668 47.0318 17.668C50.4181 17.668 53.6563 18.7529 55.0166 19.5398V36.3139C53.7262 37.2231 50.3482 38.4876 47.5537 38.4876C42.5566 38.4876 39.8936 36.0733 39.4991 31.428ZM99.6088 14.8258C98.6348 15.4332 98.2362 16.0406 98.2362 17.2974V41.0203C98.2362 42.831 99.8676 44.2865 101.692 44.2865C103.628 44.2865 105.124 42.831 105.124 41.0203V19.3603C106.607 18.5122 109.665 17.668 112.85 17.668C116.881 17.668 120.395 19.7194 120.395 24.548V41.0203C120.395 42.831 122.001 44.2865 123.826 44.2865C125.844 44.2865 127.27 42.831 127.27 41.0203V24.25C127.27 16.0979 122.466 11.5138 113.055 11.5138C106.233 11.5138 101.491 13.5079 99.6088 14.8258ZM70.271 13.3131C68.5163 14.0427 67.9944 15.2499 67.9944 16.2813C67.9944 18.1493 69.8724 19.5398 72.7409 18.6918C74.5531 18.092 77.1462 17.37 79.8092 17.37C84.8721 17.37 87.0255 19.1158 87.0255 23.2224V25.2089C84.0337 24.548 81.8146 24.1927 78.7695 24.1927C69.6875 24.1927 65.5944 28.9641 65.5944 34.2052C65.5944 40.1188 69.9998 44.6494 78.9051 44.6494C85.657 44.6494 90.5925 42.4108 92.4171 41.2648C93.3911 40.6574 93.6418 40.0003 93.6418 38.9154V23.2224C93.6418 15.0665 88.5213 11.5138 80.2078 11.5138C76.2421 11.5138 72.1532 12.4765 70.271 13.3131ZM72.3463 33.9684C72.3463 31.0689 75.2024 29.4301 79.164 29.4301C82.0859 29.4301 84.157 29.7968 87.0255 30.4577V37.162C86.3679 37.6433 83.968 39.0339 79.4804 39.0339C74.8819 39.0339 72.3463 37.2231 72.3463 33.9684ZM5.15606 13.3131C3.41363 14.0427 2.8794 15.2499 2.8794 16.2813C2.8794 18.1493 4.76977 19.5398 7.62587 18.6918C9.45048 18.0882 12.0559 17.3662 14.7065 17.3662C19.7694 17.3662 21.9105 19.112 21.9105 23.2224V25.2089C18.9188 24.548 16.7243 24.1927 13.6627 24.1927C4.89716 24.1927 0.771227 28.6393 0.5 33.6666V34.7935C0.783555 40.4167 5.18894 44.6494 13.786 44.6494C20.5461 44.6494 25.4734 42.4108 27.298 41.2648C28.272 40.6574 28.5309 40.0003 28.5309 38.9154V23.2224C28.5309 15.0665 23.3981 11.5138 15.0846 11.5138C11.1354 11.5138 7.04643 12.4765 5.15606 13.3131ZM7.23958 33.9684C7.23958 31.0689 10.0957 29.4301 14.0449 29.4301C16.9668 29.4301 19.0503 29.7968 21.9064 30.4577V37.162C21.2612 37.6433 18.8571 39.0339 14.3737 39.0339C9.76692 39.0339 7.23958 37.2231 7.23958 33.9684ZM131.856 15.3186V41.1464C131.856 42.9609 133.487 44.4164 135.3 44.4164C137.248 44.4164 138.756 42.9609 138.756 41.1464V15.3186C138.756 13.5117 137.194 12.0601 135.3 12.0601C133.352 12.0601 131.856 13.5079 131.856 15.3186Z" fill="#0131B9"/>
</svg>
