<svg xmlns="http://www.w3.org/2000/svg" xmlns:xlink="http://www.w3.org/1999/xlink" viewBox="0 0 176 81" fill="#fff" fill-rule="evenodd" stroke="#000" stroke-linecap="round" stroke-linejoin="round"><use xlink:href="#A" x=".5" y=".5"/><symbol id="A" overflow="visible"><path d="M175 64.828c0-8.203-6.562-15.245-14.802-15.245h-2.187c.583-3.267 1.677-6.606 1.677-10.382C159.688 17.423 141.604 0 120.313 0c-16.99 0-31.719 11.47-37.187 26.643-2.771-.508-5.469-1.597-8.75-1.597-15.312 0-26.833 11.978-26.833 27.223s12.031 27.223 26.833 27.223h86.406c8.24-.581 14.219-6.533 14.219-14.665zM7.146 38.113C3.281 38.113 0 41.379 0 45.155c0 3.847 3.281 7.114 7.146 7.114h33.833c0-4.936 1.167-9.801 3.354-14.156H7.146zM43.75 65.845H16.99c-3.864 0-7.146 3.339-7.146 7.114S13.125 80 16.99 80h37.188c-4.375-3.775-8.239-8.13-10.427-14.155zM79.333 19.02c2.188-4.355 4.885-8.13 8.167-11.397H28.948c-3.791 0-7.073 3.267-7.073 7.042 0 3.848 3.282 7.114 7.073 7.114h31.719c4.375-2.178 8.823-3.267 17.281-3.194-1.969.435-.291.435 1.385.435z" fill="#0078d7" stroke="none"/></symbol></svg>