<svg xmlns="http://www.w3.org/2000/svg" xmlns:xlink="http://www.w3.org/1999/xlink" viewBox="0 0 96 81" fill="#fff" fill-rule="evenodd" stroke="#000" stroke-linecap="round" stroke-linejoin="round"><use xlink:href="#A" x=".5" y=".5"/><symbol id="A" overflow="visible"><path d="M54.075 26.029c11.424 0 20.742 8.599 22.087 19.521 2.666 2.092 4.773 4.593 6.271 7.273C89.872 50.909 95 44.402 95 36.542c0-6.303-3.402-11.279-9.317-14.163v-2.092C85.683 9.187 76.543 0 65.5 0a20.5 20.5 0 0 0-16.553 8.421c-2.488-1.531-5.154-2.297-8.2-2.297-7.997 0-14.471 6.124-15.232 13.78 1.142-.204 2.488-.204 3.808-.204 5.915 0 12.567.97 18.076 6.89l6.677-.561zm-7.235 8.804v.178-.178zm0 0c-5.331 3.445-7.236 8.421-7.438 13.78h6.677L35.999 60.657 25.718 48.612h6.829c.203-7.273 3.047-14.163 7.997-18.577-3.224-2.092-7.032-3.241-11.044-3.241-11.221 0-20.361 8.982-20.361 20.083v2.118C3.427 51.853 0 56.829 0 63.158 0 72.727 7.616 80 17.517 80h43.21c9.901 0 17.517-7.451 17.517-16.842 0-6.124-3.047-10.922-8.759-13.78V48.23c0-8.421-6.855-15.311-15.232-15.311-2.666 0-5.128.766-7.413 1.914z" fill="#0072c6" stroke="none"/></symbol></svg>