<?xml version="1.0" encoding="UTF-8"?>
<svg width="534px" height="652px" viewBox="0 0 534 652" version="1.1" xmlns="http://www.w3.org/2000/svg" xmlns:xlink="http://www.w3.org/1999/xlink">
    <!-- Generator: Sketch 55.2 (78181) - https://sketchapp.com -->
    <title>Group Copy</title>
    <desc>Created with Sketch.</desc>
    <defs>
        <linearGradient x1="50%" y1="18.9615168%" x2="50%" y2="122.169502%" id="linearGradient-1">
            <stop stop-color="#99CCFF" stop-opacity="0" offset="0%"></stop>
            <stop stop-color="#6E99FF" stop-opacity="0.7872226" offset="100%"></stop>
        </linearGradient>
        <polygon id="path-2" points="0.12529279 -1.70530257e-13 79.6019706 -1.70530257e-13 79.6019706 136.239707 0.12529279 136.239707"></polygon>
        <filter x="-18.9%" y="-11.0%" width="137.7%" height="122.0%" filterUnits="objectBoundingBox" id="filter-3">
            <feOffset dx="0" dy="0" in="SourceAlpha" result="shadowOffsetOuter1"></feOffset>
            <feGaussianBlur stdDeviation="5" in="shadowOffsetOuter1" result="shadowBlurOuter1"></feGaussianBlur>
            <feColorMatrix values="0 0 0 0 0.843137255   0 0 0 0 0.894117647   0 0 0 0 0.988235294  0 0 0 1 0" type="matrix" in="shadowBlurOuter1"></feColorMatrix>
        </filter>
        <rect id="path-4" x="0.488712126" y="0.521223766" width="70.4989671" height="37.538733" rx="3"></rect>
        <polygon id="path-6" points="0.050958134 0.101916268 64.3788919 0.101916268 64.3788919 64.4298246 0.050958134 64.4298246"></polygon>
        <polygon id="path-8" points="0 0.0665516493 48.2433331 0.0665516493 48.2433331 34.3125465 0 34.3125465"></polygon>
        <polygon id="path-10" points="0.054184299 0.225786715 35.4311008 0.225786715 35.4311008 53.3611914 0.054184299 53.3611914"></polygon>
        <polygon id="path-12" points="301 435 380 435 380 433 301 433"></polygon>
        <filter x="-6.3%" y="-150.0%" width="112.7%" height="700.0%" filterUnits="objectBoundingBox" id="filter-13">
            <feOffset dx="0" dy="4" in="SourceAlpha" result="shadowOffsetOuter1"></feOffset>
            <feGaussianBlur stdDeviation="1" in="shadowOffsetOuter1" result="shadowBlurOuter1"></feGaussianBlur>
            <feColorMatrix values="0 0 0 0 0.392156863   0 0 0 0 0.556862745   0 0 0 0 0.8  0 0 0 0.4 0" type="matrix" in="shadowBlurOuter1"></feColorMatrix>
        </filter>
        <polygon id="path-14" points="0.356403257 0.139240506 28.0111392 0.139240506 28.0111392 23.5568354 0.356403257 23.5568354"></polygon>
        <polygon id="path-16" points="0.871692397 0.230181996 32.8556962 0.230181996 32.8556962 28.6201266 0.871692397 28.6201266"></polygon>
        <polygon id="path-18" points="0 0.621996209 31.8183835 0.621996209 31.8183835 32.1517722 0 32.1517722"></polygon>
        <polygon id="path-20" points="0.0478481013 0.139240506 24.098481 0.139240506 24.098481 17.6074684 0.0478481013 17.6074684"></polygon>
        <polygon id="path-22" points="0 0.139113924 21.1746835 0.139113924 21.1746835 27.2277215 0 27.2277215"></polygon>
        <path d="M10,0 L254.234627,0 C259.757474,-3.04461744e-14 264.234627,4.4771525 264.234627,10 L264.234627,181.799652 C264.234627,187.322499 259.757474,191.799652 254.234627,191.799652 L10,191.799652 C4.4771525,191.799652 6.76353751e-16,187.322499 0,181.799652 L0,10 C-6.76353751e-16,4.4771525 4.4771525,1.01453063e-15 10,0 Z" id="path-24"></path>
        <filter x="-11.4%" y="-15.6%" width="122.7%" height="131.3%" filterUnits="objectBoundingBox" id="filter-25">
            <feOffset dx="0" dy="0" in="SourceAlpha" result="shadowOffsetOuter1"></feOffset>
            <feGaussianBlur stdDeviation="10" in="shadowOffsetOuter1" result="shadowBlurOuter1"></feGaussianBlur>
            <feColorMatrix values="0 0 0 0 0.101960784   0 0 0 0 0.298039216   0 0 0 0 0.6  0 0 0 0.4 0" type="matrix" in="shadowBlurOuter1"></feColorMatrix>
        </filter>
        <circle id="path-26" cx="70" cy="70" r="70"></circle>
        <filter x="-21.4%" y="-21.4%" width="142.9%" height="142.9%" filterUnits="objectBoundingBox" id="filter-27">
            <feOffset dx="0" dy="0" in="SourceAlpha" result="shadowOffsetOuter1"></feOffset>
            <feGaussianBlur stdDeviation="10" in="shadowOffsetOuter1" result="shadowBlurOuter1"></feGaussianBlur>
            <feColorMatrix values="0 0 0 0 0.266666667   0 0 0 0 0.403921569   0 0 0 0 0.71372549  0 0 0 0.3 0" type="matrix" in="shadowBlurOuter1"></feColorMatrix>
        </filter>
        <polygon id="path-28" points="23.4539627 21.0309739 0.492002828 21.0309739 0.492002828 0.258188716 23.4539627 0.258188716"></polygon>
    </defs>
    <g id="Page-1" stroke="none" stroke-width="1" fill="none" fill-rule="evenodd">
        <g id="Desktop-HD-Copy-3" transform="translate(-69.000000, -3726.000000)">
            <g id="Group-Copy" transform="translate(65.000000, 3722.000000)">
                <path d="M254.854513,368.717784 L475.854513,368.717784 C484.691069,368.717784 491.854513,375.881228 491.854513,384.717784 L491.854513,617.717784 C491.854513,626.55434 484.691069,633.717784 475.854513,633.717784 L254.854513,633.717784 C246.017957,633.717784 238.854513,626.55434 238.854513,617.717784 L238.854513,384.717784 C238.854513,375.881228 246.017957,368.717784 254.854513,368.717784 Z" id="Rectangle-Copy-5" fill-opacity="0.1" fill="#2C7FFF" transform="translate(365.354513, 501.217784) rotate(74.000000) translate(-365.354513, -501.217784) "></path>
                <path d="M249.230824,498.789207 L265.109214,498.590151 L267.597869,562.86335 L351.503833,647.270994 L267.827745,648.842364 C258.992747,649.008278 251.696066,641.980597 251.530152,633.145599 C251.529985,633.13672 251.529825,633.12784 251.529673,633.11896 L249.230824,498.789207 Z" id="Rectangle" fill="url(#linearGradient-1)" transform="translate(300.367329, 573.717697) rotate(-15.000000) translate(-300.367329, -573.717697) "></path>
                <path d="M131.911303,-15.938892 L315.911303,-15.938892 C324.747859,-15.938892 331.911303,-8.77544801 331.911303,0.06110799 L331.911303,301.061108 C331.911303,309.897664 324.747859,317.061108 315.911303,317.061108 L131.911303,317.061108 C123.074747,317.061108 115.911303,309.897664 115.911303,301.061108 L115.911303,0.06110799 C115.911303,-8.77544801 123.074747,-15.938892 131.911303,-15.938892 Z" id="Rectangle-Copy-5" fill-opacity="0.1" fill="#2C7FFF" transform="translate(223.911303, 150.561108) rotate(74.000000) translate(-223.911303, -150.561108) "></path>
                <path d="M130.443719,95.7831207 L411.443719,95.7831207 C420.280275,95.7831207 427.443719,102.946565 427.443719,111.783121 L427.443719,551.783121 C427.443719,560.619677 420.280275,567.783121 411.443719,567.783121 L130.443719,567.783121 C121.607163,567.783121 114.443719,560.619677 114.443719,551.783121 L114.443719,111.783121 C114.443719,102.946565 121.607163,95.7831207 130.443719,95.7831207 Z" id="Rectangle-Copy-5" fill-opacity="0.1" fill="#2C7FFF" transform="translate(270.943719, 331.783121) rotate(74.000000) translate(-270.943719, -331.783121) "></path>
                <g id="Mobile" transform="translate(101.030130, 326.495497) rotate(-17.000000) translate(-101.030130, -326.495497) translate(61.030130, 257.995497)">
                    <g id="Rectangle-10">
                        <use fill="black" fill-opacity="1" filter="url(#filter-3)" xlink:href="#path-2"></use>
                        <use fill="#FFFFFF" fill-rule="evenodd" xlink:href="#path-2"></use>
                    </g>
                    <path d="M13.7520715,49.7016695 C15.41154,49.7016695 16.756805,51.0469344 16.756805,52.7064029 C16.756805,54.3658713 15.41154,55.7111363 13.7520715,55.7111363 C12.0926031,55.7111363 10.7473381,54.3658713 10.7473381,52.7064029 C10.7473381,51.0469344 12.0926031,49.7016695 13.7520715,49.7016695 Z" id="Rectangle-10" fill="#55A0FF"></path>
                    <path d="M31.7804721,49.7016695 C33.4399406,49.7016695 34.7852055,51.0469344 34.7852055,52.7064029 C34.7852055,54.3658713 33.4399406,55.7111363 31.7804721,55.7111363 C30.1210037,55.7111363 28.7757387,54.3658713 28.7757387,52.7064029 C28.7757387,51.0469344 30.1210037,49.7016695 31.7804721,49.7016695 Z" id="Rectangle-10" fill="#D7E4FC"></path>
                    <path d="M49.1411541,49.7016695 C50.8006226,49.7016695 52.1458876,51.0469344 52.1458876,52.7064029 C52.1458876,54.3658713 50.8006226,55.7111363 49.1411541,55.7111363 C47.4816857,55.7111363 46.1364207,54.3658713 46.1364207,52.7064029 C46.1364207,51.0469344 47.4816857,49.7016695 49.1411541,49.7016695 Z" id="Rectangle-10" fill="#D7E4FC"></path>
                    <path d="M65.8341176,49.7016695 C67.4935861,49.7016695 68.8388511,51.0469344 68.8388511,52.7064029 C68.8388511,54.3658713 67.4935861,55.7111363 65.8341176,55.7111363 C64.1746492,55.7111363 62.8293842,54.3658713 62.8293842,52.7064029 C62.8293842,51.0469344 64.1746492,49.7016695 65.8341176,49.7016695 Z" id="Rectangle-10" fill="#D7E4FC"></path>
                    <path d="M45.8478904,63.8965878 L68.5660989,63.8965878 C71.3275226,63.8965878 73.5660989,66.1351641 73.5660989,68.8965878 L73.5660989,90.5597998 C73.5660989,93.3212235 71.3275226,95.5597998 68.5660989,95.5597998 L45.8478904,95.5597998 C43.0864666,95.5597998 40.8478904,93.3212235 40.8478904,90.5597998 L40.8478904,68.8965878 C40.8478904,66.1351641 43.0864666,63.8965878 45.8478904,63.8965878 Z" id="Rectangle-10" fill="#A9CFFF"></path>
                    <path d="M10.9097265,63.9613499 L33.627935,63.9613499 C36.3893587,63.9613499 38.627935,66.1999262 38.627935,68.9613499 L38.627935,90.6245619 C38.627935,93.3859856 36.3893587,95.6245619 33.627935,95.6245619 L10.9097265,95.6245619 C8.14830275,95.6245619 5.9097265,93.3859856 5.9097265,90.6245619 L5.9097265,68.9613499 C5.9097265,66.1999262 8.14830275,63.9613499 10.9097265,63.9613499 Z" id="Rectangle-10" fill="#CFE0FF"></path>
                    <path d="M45.7308309,97.4869068 L68.4490394,97.4869068 C71.2104631,97.4869068 73.4490394,99.7254831 73.4490394,102.486907 L73.4490394,124.150119 C73.4490394,126.911543 71.2104631,129.150119 68.4490394,129.150119 L45.7308309,129.150119 C42.9694072,129.150119 40.7308309,126.911543 40.7308309,124.150119 L40.7308309,102.486907 C40.7308309,99.7254831 42.9694072,97.4869068 45.7308309,97.4869068 Z" id="Rectangle-10" fill="#CFE0FF"></path>
                    <path d="M11.0094669,97.4869068 L33.7276753,97.4869068 C36.4890991,97.4869068 38.7276753,99.7254831 38.7276753,102.486907 L38.7276753,124.150119 C38.7276753,126.911543 36.4890991,129.150119 33.7276753,129.150119 L11.0094669,129.150119 C8.24804311,129.150119 6.00946686,126.911543 6.00946686,124.150119 L6.00946686,102.486907 C6.00946686,99.7254831 8.24804311,97.4869068 11.0094669,97.4869068 Z" id="Rectangle-10" fill="#A9CFFF"></path>
                    <g id="Path-15" transform="translate(4.006311, 4.674030)">
                        <mask id="mask-5" fill="white">
                            <use xlink:href="#path-4"></use>
                        </mask>
                        <use id="Mask" fill="#9BC7FF" xlink:href="#path-4"></use>
                    </g>
                </g>
                <path d="M257,187 L276.5,253.5" id="Path-10" stroke="#2C7FFF" stroke-width="1.5" stroke-dasharray="4,3"></path>
                <path d="M183.466204,208.922275 L197.261769,255.725614 L126.337182,276.14327" id="Path-10-Copy" stroke="#2C7FFF" stroke-width="1.5" stroke-dasharray="4,3"></path>
                <path d="M179,9 L267,9 C269.761424,9 272,11.2385763 272,14 L272,281 C272,283.761424 269.761424,286 267,286 L179,286 C176.238576,286 174,283.761424 174,281 L174,14 C174,11.2385763 176.238576,9 179,9 Z" id="Rectangle-Copy-5" fill="#FFFFFF" transform="translate(223.000000, 147.500000) rotate(74.000000) translate(-223.000000, -147.500000) "></path>
                <g id="Group-6" transform="translate(218.500000, 148.500000) rotate(-16.000000) translate(-218.500000, -148.500000) translate(188.000000, 118.000000)" fill="#ADCFFF">
                    <path d="M36.6870594,49.8657635 C37.4591388,50.6112195 38.3909589,50.9839475 39.4825195,50.9839475 C41.5059001,50.9839475 42.7305779,49.8923869 43.1299293,47.7358891 L48.6143558,48.1352406 C47.0701969,52.874211 43.9552556,55.2703197 39.269532,55.2703197 C37.219528,55.2703197 35.489005,54.8709683 34.0513398,54.045642 C32.6136746,53.2203156 31.4422437,52.0222613 30.5104237,50.451479 C29.5786037,48.8806966 29.1260054,46.9904331 29.1260054,44.7804222 C29.1260054,41.5060066 30.0578254,38.8702871 31.9214655,36.8735299 C33.7851055,34.8767726 36.1812142,33.8648161 39.1097915,33.8648161 C41.745511,33.8648161 44.0351259,34.7966361 45.9253894,36.6602762 C47.8156529,38.4975591 48.7740964,41.4793832 48.7740964,45.5791251 L35.5422519,45.5791251 C35.5156285,45.9521194 35.5156285,46.2716005 35.5156285,46.5378348 C35.5156285,48.0021234 35.9149799,49.1203075 36.6870594,49.8657635 M24.2805412,52.5012168 C22.3370308,54.3384997 19.4883238,55.2436963 15.6811734,55.2436963 C12.8324664,55.2436963 10.4097343,54.604734 8.41297713,53.2999197 C6.41621991,51.9956379 5.08504843,50.0787509 4.44608612,47.5229017 L10.4629812,46.1651068 C11.1285669,48.7475795 13.0188304,50.0521275 16.1337717,50.0521275 C17.6246838,50.0521275 18.7428678,49.7592698 19.4617004,49.2001778 C20.2071564,48.6144623 20.553261,47.9222531 20.553261,47.1235503 C20.553261,46.2982239 20.2337799,45.6858851 19.5681941,45.2332868 C18.9026084,44.7804222 17.6246838,44.3547136 15.7077968,43.9817193 C12.1668807,43.2365295 9.63765489,42.2511964 8.14674283,40.973538 C6.62920735,39.6956134 5.88375132,37.8583305 5.88375132,35.4092412 C5.88375132,32.932996 6.78894792,30.8566348 8.57271771,29.1527353 C10.3831109,27.4488358 12.805843,26.596886 15.8941608,26.596886 C21.3519639,26.6235095 24.8662566,28.8063645 26.4104155,33.1459835 L20.8727422,35.0096236 C20.1272862,32.7998789 18.5565038,31.7085845 16.1337717,31.7085845 C13.551299,31.7085845 12.2733744,32.5336446 12.2733744,34.2109207 C12.2733744,34.8765064 12.5129853,35.4358647 12.992207,35.888463 C13.4714288,36.340795 14.5629894,36.7401465 16.2668889,37.0865173 C19.1155958,37.6456093 21.1922233,38.2313248 22.4967714,38.8170402 C23.8013194,39.4024894 24.9195035,40.3343095 25.8247001,41.6391238 C26.7298967,42.9436718 27.182495,44.3810708 27.182495,45.9784766 C27.182495,48.4813452 26.2240515,50.6644664 24.2805412,52.5012168 M60.139106,9.60368339 L39.1896617,31.2823434 L27.8480807,19.1689492 L32.081206,12.8325729 L39.9617412,20.2338864 L56.3899947,2.9858975 C54.4230557,1.29238114 51.8650766,0.266314166 49.0669541,0.266314166 L11.2350607,0.266314166 C5.03180157,0.266314166 -2.66234298e-05,5.29814236 -2.66234298e-05,11.5014015 L-2.66234298e-05,49.3332949 C-2.66234298e-05,55.536554 5.03180157,60.5683822 11.2350607,60.5683822 L49.0669541,60.5683822 C55.2702132,60.5683822 60.3020414,55.536554 60.3020414,49.3332949 L60.3020414,11.5014015 C60.3020414,10.8541859 60.2442686,10.2208145 60.139106,9.60368339" id="Fill-3"></path>
                    <path d="M38.7902837,37.8054031 C36.5272922,37.8051369 35.2493675,39.2164449 34.9831332,42.0382622 L42.277953,42.0382622 C42.0915889,39.2164449 40.920158,37.8054031 38.7902837,37.8054031" id="Fill-1"></path>
                </g>
                <g id="Search_lighter" transform="translate(299.705384, 512.950675) rotate(-49.000000) translate(-299.705384, -512.950675) translate(250.205384, 463.450675)" fill="#ACD0FF" fill-rule="nonzero">
                    <path d="M9.43599978,76.1269837 C9.43599978,76.1269837 3.4874678,82.045806 9.43599978,88.8101744 C14.9596366,94.7289967 21.7579589,88.8101744 21.7579589,88.8101744 L42.1529257,69.7853883 C42.1529257,69.7853883 51.5006188,73.5903455 57.8740459,73.5903455 C76.5694321,73.5903455 91.4407621,58.7932897 91.4407621,40.1912767 C91.4407621,22.0120366 76.5694321,6.79220779 57.8740459,6.79220779 C39.1786597,6.79220779 24.3073297,21.5892636 24.3073297,40.1912767 C24.3073297,46.110099 25.5820152,51.1833753 28.131386,55.8338785 L9.43599978,76.1269837 Z M34.079918,40.1912767 C34.079918,27.0853129 44.7022965,16.0932143 58.2989411,16.0932143 C71.4706904,16.0932143 82.5179641,26.6625399 82.5179641,40.1912767 C82.5179641,53.2972404 71.8955856,64.289339 58.2989411,64.289339 C45.1271917,64.289339 34.079918,53.2972404 34.079918,40.1912767 Z" id="Fill-2" transform="translate(49.116485, 49.116485) rotate(10.000000) translate(-49.116485, -49.116485) "></path>
                </g>
                <g id="Group-20" transform="translate(268.000000, 90.000000)">
                    <g id="Group-3" transform="translate(0.000000, 0.203731)">
                        <mask id="mask-7" fill="white">
                            <use xlink:href="#path-6"></use>
                        </mask>
                        <g id="Clip-2"></g>
                        <path d="M32.2149377,0.101916268 C49.9787242,0.101916268 64.3789174,14.5021094 64.3789174,32.2658959 C64.3789174,50.0294277 49.9787242,64.4298755 32.2149377,64.4298755 C14.4511513,64.4298755 0.050958134,50.0294277 0.050958134,32.2658959 C0.050958134,14.5021094 14.4511513,0.101916268 32.2149377,0.101916268" id="Fill-1" fill="#DDEBFF" mask="url(#mask-7)"></path>
                    </g>
                    <path d="M28.955298,0.254663338 C44.9468823,0.254663338 57.9102648,13.2183006 57.9102648,29.2098849 C57.9102648,45.2014692 44.9468823,58.1651064 28.955298,58.1651064 C12.9637136,58.1651064 7.63990015e-05,45.2014692 7.63990015e-05,29.2098849 C7.63990015e-05,13.2183006 12.9637136,0.254663338 28.955298,0.254663338" id="Fill-4" fill="#8DBFFF"></path>
                    <path d="M32.775248,0.254663338 C46.6429401,0.254663338 57.8850532,11.4967764 57.8850532,25.3644685 C57.8850532,39.2321606 46.6429401,50.4742736 32.775248,50.4742736 C18.9073013,50.4742736 7.66518822,39.2321606 7.66518822,25.3644685 C7.66518822,11.4967764 18.9073013,0.254663338 32.775248,0.254663338" id="Fill-6" fill="#DDEBFF"></path>
                    <path d="M34.8125547,4.27829315 C47.5691507,4.27829315 57.9102648,14.619662 57.9102648,27.3762579 C57.9102648,40.1328539 47.5691507,50.4742227 34.8125547,50.4742227 C22.0557041,50.4742227 11.71459,40.1328539 11.71459,27.3762579 C11.71459,14.619662 22.0557041,4.27829315 34.8125547,4.27829315" id="Fill-8" fill="#8DBFFF"></path>
                    <path d="M33.1316239,7.63990015 C44.959972,7.63990015 54.5490653,17.2287388 54.5490653,29.0570869 C54.5490653,40.885435 44.959972,50.4742736 33.1316239,50.4742736 C21.3032758,50.4742736 11.7144372,40.885435 11.7144372,29.0570869 C11.7144372,17.2287388 21.3032758,7.63990015 33.1316239,7.63990015" id="Fill-10" fill="#DDEBFF"></path>
                    <path d="M29.719288,7.71624821 C39.6628727,7.71624821 47.7237313,15.7773615 47.7237313,25.7209462 C47.7237313,35.6647856 39.6628727,43.7256442 29.719288,43.7256442 C19.7754486,43.7256442 11.71459,35.6647856 11.71459,25.7209462 C11.71459,15.7773615 19.7754486,7.71624821 29.719288,7.71624821" id="Fill-12" fill="#8DBFFF"></path>
                    <path d="M32.6479164,7.63990015 C40.9741342,7.63990015 47.7237313,14.3897519 47.7237313,22.7159698 C47.7237313,31.0421876 40.9741342,37.7920394 32.6479164,37.7920394 C24.3216985,37.7920394 17.5718467,31.0421876 17.5718467,22.7159698 C17.5718467,14.3897519 24.3216985,7.63990015 32.6479164,7.63990015" id="Fill-14" fill="#DDEBFF"></path>
                    <path d="M34.5322723,11.3580103 C41.8459487,11.3580103 47.7747658,17.2868275 47.7747658,24.6005039 C47.7747658,31.9141803 41.8459487,37.8429975 34.5322723,37.8429975 C27.2185958,37.8429975 21.2897787,31.9141803 21.2897787,24.6005039 C21.2897787,17.2868275 27.2185958,11.3580103 34.5322723,11.3580103" id="Fill-16" fill="#8DBFFF"></path>
                    <path d="M32.5713136,15.9818562 C38.3720351,15.9818562 43.0743937,20.6842147 43.0743937,26.4849362 C43.0743937,32.2856578 38.3720351,36.9880163 32.5713136,36.9880163 C26.7708468,36.9880163 22.0684882,32.2856578 22.0684882,26.4849362 C22.0684882,20.6842147 26.7708468,15.9818562 32.5713136,15.9818562" id="Fill-18" fill="#FFFFFF"></path>
                </g>
                <g id="Group-9" transform="translate(139.048611, 173.500000) rotate(-16.000000) translate(-139.048611, -173.500000) translate(107.000000, 141.000000)">
                    <path d="M49.4689567,6.17876275 C41.982143,-0.283856608 25.3987853,-3.50282362 12.9613287,5.78848768 C1.3044222,13.5925079 0.71913303,27.883339 0.71913303,27.883339 C2.69445313,35.6873592 10.5715419,43.1983645 25.7646219,39.5402455 C23.9843159,29.0539174 27.4960509,2.47176676 49.4689567,6.17876275" id="Fill-1" fill="#E9F2FF"></path>
                    <g id="Group-5" transform="translate(0.000000, 29.162755)">
                        <mask id="mask-9" fill="white">
                            <use xlink:href="#path-8"></use>
                        </mask>
                        <g id="Clip-4"></g>
                        <path d="M40.9320291,3.71751194 C32.808087,10.463272 8.04919488,20.7634728 0.360208333,0.0665516493 C-1.47736762,9.71382541 3.6243495,25.7442318 17.7687967,31.8131201 C30.2450092,37.9543365 43.2773823,30.8459489 43.2773823,30.8459489 C48.9833963,25.2606462 51.5946105,14.9362538 40.9320291,3.71751194" id="Fill-3" fill="#C5DDFF" mask="url(#mask-9)"></path>
                    </g>
                    <g id="Group-8" transform="translate(27.647569, 6.205398)">
                        <mask id="mask-11" fill="white">
                            <use xlink:href="#path-10"></use>
                        </mask>
                        <g id="Clip-7"></g>
                        <path d="M0.054184299,16.5020443 C9.92510715,20.1616444 30.481075,36.7464833 17.2087606,53.3611914 C26.4297187,50.1592573 37.0342896,37.4236019 35.2285577,22.2080583 C34.3134725,8.38871691 22.372191,0.853026259 22.372191,0.853026259 C14.716036,-1.313852 4.43583035,1.71972819 0.054184299,16.5020443" id="Fill-6" fill="#8DBFFF" mask="url(#mask-11)"></path>
                    </g>
                </g>
                <g id="Page-1" transform="translate(340.500000, 434.000000) rotate(73.000000) translate(-340.500000, -434.000000) ">
                    <use fill="black" fill-opacity="1" filter="url(#filter-13)" xlink:href="#path-12"></use>
                    <use fill="#00BCFF" fill-rule="evenodd" xlink:href="#path-12"></use>
                </g>
                <g id="Group-28" transform="translate(430.500000, 283.000000) rotate(-16.000000) translate(-430.500000, -283.000000) translate(384.000000, 234.000000)">
                    <g id="Group-3" transform="translate(51.898734, 0.126582)">
                        <mask id="mask-15" fill="white">
                            <use xlink:href="#path-14"></use>
                        </mask>
                        <g id="Clip-2"></g>
                        <path d="M5.73139241,23.5568354 L4.21240506,23.3036709 C1.42886076,22.5441772 -0.217974684,19.5062025 0.541518987,16.7213924 C3.32759494,6.97455696 12.4402532,0.139113924 22.6934177,0.139113924 C25.6048101,0.139113924 28.0111392,2.54417722 28.0111392,5.45556962 C28.0111392,8.36696203 25.6048101,10.7720253 22.6934177,10.7720253 C17.1237975,10.7720253 12.3136709,14.4429114 10.7946835,19.7593671 C10.1617722,22.0378481 8.00987342,23.5568354 5.73139241,23.5568354" id="Fill-1" fill="#B0C9EC" mask="url(#mask-15)"></path>
                    </g>
                    <g id="Group-6" transform="translate(59.493671, 26.708861)">
                        <mask id="mask-17" fill="white">
                            <use xlink:href="#path-16"></use>
                        </mask>
                        <g id="Clip-5"></g>
                        <path d="M6.23822785,28.6201266 C3.83316456,28.6201266 1.68,26.974557 1.04708861,24.5694937 C0.288860759,21.6581013 2.06101266,18.8732911 4.97240506,18.1137975 L16.8698734,15.2024051 L22.8205063,3.17708861 C24.0863291,0.518860759 27.3774684,-0.493797468 29.9091139,0.772025316 C32.5673418,2.0378481 33.58,5.32898734 32.3141772,7.86063291 L25.2255696,22.0378481 C24.4648101,23.4302532 23.3268354,24.4429114 21.8078481,24.8226582 L7.63063291,28.366962 L6.23822785,28.6201266 Z" id="Fill-4" fill="#CCDCF3" mask="url(#mask-17)"></path>
                    </g>
                    <path d="M87.1236709,90.7720253 C85.2249367,90.7720253 83.3262025,89.7593671 82.3135443,87.8606329 L75.9844304,75.3289873 L63.4540506,69.253038 C60.794557,67.9872152 59.6565823,64.8226582 60.9224051,62.1644304 C62.1882278,59.5062025 65.3527848,58.366962 68.0097468,59.6327848 L82.1882278,66.4682278 C83.1996203,66.974557 84.086962,67.8606329 84.5920253,68.8732911 L91.6818987,83.0505063 C92.9477215,85.7087342 91.9350633,88.8732911 89.2755696,90.1391139 C88.7705063,90.645443 87.8844304,90.7720253 87.1236709,90.7720253" id="Fill-7" fill="#CCDCF3"></path>
                    <path d="M26.7448101,55.3289873 L25.4789873,55.2024051 L11.3017722,51.6581013 C9.78278481,51.2783544 8.51696203,50.2656962 7.88405063,48.8732911 L0.795443038,34.6960759 C-0.470379747,32.0378481 0.542278481,28.8732911 3.19924051,27.6074684 C5.85873418,26.3416456 9.02329114,27.3543038 10.2891139,30.0125316 L16.2372152,42.0378481 L28.1372152,44.9492405 C31.0473418,45.7087342 32.6929114,48.6201266 32.06,51.4049367 C31.3017722,53.6834177 29.1486076,55.3289873 26.7448101,55.3289873" id="Fill-9" fill="#90A4AE"></path>
                    <g id="Group-13" transform="translate(-0.000000, 58.620253)">
                        <mask id="mask-19" fill="white">
                            <use xlink:href="#path-18"></use>
                        </mask>
                        <g id="Clip-12"></g>
                        <path d="M5.35189873,32.1517722 C4.59240506,32.1517722 3.70632911,32.0251899 2.94683544,31.645443 C0.288607595,30.3796203 -0.724050633,27.088481 0.541772152,24.5568354 L7.63037975,10.3796203 C8.13670886,9.36696203 9.02278481,8.48088608 10.035443,7.97455696 L24.2126582,1.13911392 C26.8708861,-0.126708861 30.035443,1.01253165 31.3012658,3.67075949 C32.5670886,6.32898734 31.4278481,9.4935443 28.7696203,10.7593671 L16.2379747,16.8353165 L9.90886076,29.366962 C9.27594937,31.1391139 7.37721519,32.1517722 5.35189873,32.1517722" id="Fill-11" fill="#90A4AE" mask="url(#mask-19)"></path>
                    </g>
                    <path d="M60.4151899,32.1646835 L31.9341772,32.1646835 C29.0227848,32.1646835 26.6177215,29.7596203 26.6177215,26.8482278 C26.6177215,16.0887342 35.3518987,7.35455696 46.1113924,7.35455696 C56.8708861,7.35455696 65.6050633,16.0887342 65.6050633,26.8482278 C65.7316456,29.7596203 63.4531646,32.1646835 60.4151899,32.1646835" id="Fill-14" fill="#96B8E8"></path>
                    <path d="M46.2377215,97.8601266 C32.5668354,97.8601266 21.4275949,86.7208861 21.4275949,73.05 L21.4275949,32.1651899 C21.4275949,29.2525316 23.8326582,26.8474684 26.7453165,26.8474684 L65.8579747,26.8474684 C68.7693671,26.8474684 71.1744304,29.2525316 71.1744304,32.1651899 L71.1744304,73.05 C71.1744304,86.7208861 59.9086076,97.8601266 46.2377215,97.8601266" id="Fill-16" fill="#B0C9EC"></path>
                    <path d="M46.2377215,82.2907595 C49.1491139,82.2907595 51.5541772,79.886962 51.5541772,76.9743038 L51.5541772,26.8477215 L40.9212658,26.8477215 L40.9212658,76.9743038 C40.9212658,80.0122785 43.3263291,82.2907595 46.2377215,82.2907595" id="Fill-18" fill="#E9F2FF"></path>
                    <g id="Group-22" transform="translate(12.392405, 0.126582)">
                        <mask id="mask-21" fill="white">
                            <use xlink:href="#path-20"></use>
                        </mask>
                        <g id="Clip-21"></g>
                        <path d="M5.3643038,0.139113924 C2.45291139,0.139113924 0.0478481013,2.54417722 0.0478481013,5.45556962 C0.0478481013,8.36696203 2.45291139,10.7720253 5.3643038,10.7720253 C10.1744304,10.7720253 14.4782278,13.5568354 16.5035443,17.6074684 C18.2756962,14.3163291 20.9339241,11.531519 24.098481,9.75936709 C19.9212658,3.81 12.9592405,0.139113924 5.3643038,0.139113924" id="Fill-20" fill="#B0C9EC" mask="url(#mask-21)"></path>
                    </g>
                    <g id="Group-25" transform="translate(0.000000, 26.708861)">
                        <mask id="mask-23" fill="white">
                            <use xlink:href="#path-22"></use>
                        </mask>
                        <g id="Clip-24"></g>
                        <path d="M5.35189873,0.139113924 C4.59240506,0.139113924 3.70632911,0.265696203 2.94683544,0.645443038 C0.288607595,1.91126582 -0.724050633,5.20240506 0.541772152,7.73405063 L7.63037975,21.9112658 C8.38987342,23.3036709 9.52911392,24.3163291 11.0481013,24.6960759 L21.1746835,27.2277215 L21.1746835,16.2150633 L15.9848101,14.9492405 L10.035443,2.92392405 C9.27594937,1.27835443 7.37721519,0.139113924 5.35189873,0.139113924" id="Fill-23" fill="#CCDCF3" mask="url(#mask-23)"></path>
                    </g>
                    <path d="M21.4281013,61.0251899 L10.1622785,66.4682278 C9.14962025,66.974557 8.2635443,67.8606329 7.75721519,68.8732911 L0.668607595,83.0505063 C-0.59721519,85.7087342 0.414177215,88.8732911 3.07367089,90.1391139 C3.83316456,90.5188608 4.71924051,90.645443 5.47746835,90.645443 C7.37620253,90.645443 9.27493671,89.6327848 10.2888608,87.7340506 L16.6179747,75.2024051 L21.5546835,72.7973418 L21.5546835,61.0251899 L21.4281013,61.0251899 Z" id="Fill-26" fill="#CCDCF3"></path>
                </g>
                <g id="Computer" transform="translate(268.527467, 353.996140) rotate(-16.000000) translate(-268.527467, -353.996140) translate(136.027467, 257.996140)">
                    <g id="Rectangle-9">
                        <use fill="black" fill-opacity="1" filter="url(#filter-25)" xlink:href="#path-24"></use>
                        <use fill="#EAF2FF" fill-rule="evenodd" xlink:href="#path-24"></use>
                    </g>
                    <circle id="Oval-3" fill="#8EB6F2" cx="132.627419" cy="174.456066" r="5.78119518"></circle>
                    <polygon id="Rectangle-10" fill="#E9F2FF" points="11.5623904 11.5623904 252.672236 11.5623904 252.672236 158.812832 11.5623904 158.812832"></polygon>
                </g>
                <g id="Board" transform="translate(265.070987, 344.020426) rotate(10.000000) translate(-265.070987, -344.020426) translate(125.070987, 225.520426)">
                    <polygon id="Rectangle" fill="#FFFFFF" transform="translate(139.977903, 118.427105) rotate(64.000000) translate(-139.977903, -118.427105) " points="66.8962836 -1.02087738 213.059523 -1.02087738 213.059523 237.875088 66.8962836 237.875088"></polygon>
                    <g id="Group-8" transform="translate(142.212871, 123.786600) rotate(179.000000) translate(-142.212871, -123.786600) translate(18.212871, 18.286600)">
                        <g id="green" transform="translate(-0.000000, 0.276852)">
                            <polygon id="Rectangle" fill="#55A0FF" transform="translate(139.797209, 138.191394) rotate(65.000000) translate(-139.797209, -138.191394) " points="110.42016 33.0766399 169.174258 33.0766399 169.174258 243.306148 110.42016 243.306148"></polygon>
                            <polygon id="Rectangle" fill="#D7E4FC" transform="translate(120.921370, 97.578185) rotate(65.000000) translate(-120.921370, -97.578185) " points="118.343001 15.8732671 123.49974 15.8732671 123.49974 179.283103 118.343001 179.283103"></polygon>
                            <polygon id="Rectangle-Copy-7" fill="#D7E4FC" transform="translate(115.427494, 86.365139) rotate(65.000000) translate(-115.427494, -86.365139) " points="112.849124 4.66022131 118.005863 4.66022131 118.005863 168.070057 112.849124 168.070057"></polygon>
                            <polygon id="Rectangle-Copy-8" fill="#D7E4FC" transform="translate(109.933617, 75.152094) rotate(65.000000) translate(-109.933617, -75.152094) " points="107.355247 -6.55282445 112.511986 -6.55282445 112.511986 156.857012 107.355247 156.857012"></polygon>
                            <polygon id="Rectangle" fill="#8DBFFF" transform="translate(149.716381, 29.349728) rotate(65.000000) translate(-149.716381, -29.349728) " points="140.536053 -19.3060094 158.896709 -19.3060094 158.896709 78.005466 140.536053 78.005466"></polygon>
                            <polygon id="Rectangle-Copy-6" fill="#8DBFFF" transform="translate(48.623345, 76.497401) rotate(65.000000) translate(-48.623345, -76.497401) " points="39.4430176 27.8416633 57.8036733 27.8416633 57.8036733 125.153139 39.4430176 125.153139"></polygon>
                        </g>
                    </g>
                </g>
                <g id="Group-2" transform="translate(320.000000, 448.000000)">
                    <g id="Oval">
                        <use fill="black" fill-opacity="1" filter="url(#filter-27)" xlink:href="#path-26"></use>
                        <use fill="#FFFFFF" fill-rule="evenodd" xlink:href="#path-26"></use>
                    </g>
                    <circle id="Oval" fill="#5FD7FF" cx="70" cy="70" r="55"></circle>
                    <polygon id="Path-4" fill="#FFFFFF" transform="translate(69.000000, 66.068568) rotate(292.000000) translate(-69.000000, -66.068568) " points="42.2063325 44 35 70.1685814 100.087405 88.1371359 103 77.6208215 48.2030431 62.7339237 52.8575694 46.7566044"></polygon>
                </g>
                <g id="Page-1" transform="translate(233.000000, 87.500000) rotate(190.000000) translate(-233.000000, -87.500000) translate(205.000000, 63.000000)">
                    <path d="M8.13663506,11.2213284 C8.13663506,11.2213284 8.60304839,9.20912446 7.91489758,7.96025818 C7.22674678,6.71139191 6.45216546,5.31802258 5.72938161,5.68362595 C5.00659776,6.04922931 5.87720065,7.43506544 5.87720065,7.43506544 C5.87720065,7.43506544 4.34404617,6.93683064 1.27773722,5.94036105 C1.07733044,6.88470231 1.49770008,8.09227831 2.53884614,9.56308903 C4.10056523,11.7693051 5.64909735,12.8703416 5.64909735,12.8703416 L8.13663506,11.2213284 Z" id="Fill-4" fill="#FFAC2C" transform="translate(4.760155, 9.247317) rotate(23.000000) translate(-4.760155, -9.247317) "></path>
                    <path d="M51.1850298,6.1949334 C51.1850298,6.1949334 51.6514432,4.18272947 50.9632924,2.9338632 C50.2751416,1.68499693 49.5005602,0.291627603 48.7777764,0.657230964 C48.0549925,1.02283432 48.9255954,2.40867046 48.9255954,2.40867046 C48.9255954,2.40867046 47.392441,1.91043566 44.326132,0.913966066 C44.1257252,1.85830733 44.5460949,3.06588332 45.5872409,4.53669405 C47.14896,6.74291013 48.6974921,7.84394662 48.6974921,7.84394662 L51.1850298,6.1949334 Z" id="Fill-4" fill="#FFAC2C" transform="translate(47.808550, 4.220922) scale(-1, 1) rotate(-277.000000) translate(-47.808550, -4.220922) "></path>
                    <path d="M3.78640749,12.7301551 C3.65919092,13.635348 1.43135699,26.4538613 10.8034158,36.6371845 C18.1739039,44.6456769 34.230297,49.6537934 47.5471581,38.2806004 C53.0924773,33.5446506 55.720125,25.1758745 55.9081717,18.5605781 C56.1122228,11.3822605 51.5035862,5.15420366 51.5035862,5.15420366 L48.9126344,8.1148168 C48.9126344,8.1148168 49.6943771,14.2301004 47.2182842,20.1707446 C45.0874763,25.2829812 42.0050592,27.2098414 38.7097496,28.5709881 C33.3521271,30.7839851 29.9831365,30.4741032 24.6284807,30.3508431 C19.6011775,30.2351185 15.7280687,29.1333587 12.4067686,25.2287366 C8.64050445,20.8010011 7.56016877,12.2780102 7.56016877,12.2780102 L3.78640749,12.7301551 Z" id="Fill-7" fill="#5598FF"></path>
                    <path d="M42.3822521,27.7375951 C43.1819088,30.5513673 39.5257891,34.0545646 34.2161959,35.563399 C28.9066027,37.0715961 23.9538285,36.0138829 23.1541718,33.2007479 C22.354515,30.3869757 26.0119091,26.8831412 31.3215023,25.374944 C36.6310955,23.8661097 41.5832326,24.9238229 42.3822521,27.7375951" id="Fill-10" fill="#FFAC2C"></path>
                    <path d="M20.3490275,31.5267031 C20.3490275,31.5267031 21.8623221,32.994121 22.0987147,39.4722962 C22.377798,47.1024868 28.4016663,50.5349575 38.596493,47.0298487 C46.1400276,44.4359025 48.5829629,38.1100125 46.0221499,32.3117048 C43.1650497,25.8405385 36.3083916,25.6857046 30.3597102,28.9231993 C24.8124501,31.9427795 20.3490275,31.5267031 20.3490275,31.5267031" id="Fill-12" fill="#0D264C"></path>
                </g>
                <g id="Page-1" transform="translate(465.500000, 533.500000) rotate(-61.000000) translate(-465.500000, -533.500000) translate(442.000000, 506.000000)">
                    <path d="M3.81935342,20.7440742 C3.81935342,20.7440742 5.69226961,20.2088016 6.40771945,19.0702351 C7.12316928,17.9316685 7.9182901,16.6557475 7.2862849,16.226745 C6.65427971,15.7977425 5.909273,17.1494184 5.909273,17.1494184 C5.909273,17.1494184 5.61926649,15.6570754 5.03925345,12.6723895 C4.1687318,12.9388425 3.3649098,13.8376643 2.62778742,15.3688549 C1.52210386,17.6656408 1.32194776,19.446266 1.32194776,19.446266 L3.81935342,20.7440742 Z" id="Fill-4" fill="#FFAC2C" transform="translate(4.419154, 16.708232) rotate(-22.000000) translate(-4.419154, -16.708232) "></path>
                    <path d="M42.1171522,7.86709699 C42.1171522,7.86709699 42.557,5.96950226 41.9080442,4.79176772 C41.2590885,3.61403318 40.528625,2.30002605 39.8470088,2.64480573 C39.1653926,2.9895854 39.9160361,4.49414024 39.9160361,4.49414024 C39.9160361,4.49414024 36.6358702,0.734020912 35.7700405,1.46478452 C34.9042108,2.19554813 35.5416427,4.2949977 36.8381968,6.30330605 C38.1347509,8.3116144 39.7712973,9.42218728 39.7712973,9.42218728 L42.1171522,7.86709699 Z" id="Fill-4" fill="#FFAC2C" transform="translate(38.817871, 5.396378) scale(-1, 1) rotate(-313.000000) translate(-38.817871, -5.396378) "></path>
                    <path d="M2.23587752,20.1321695 C1.96377544,20.6391968 -2.73372026,32.95047 6.12620898,43.4439695 C12.6709551,51.1954186 32.1414699,52.6624199 42.1839274,40.1453651 C46.2588924,35.0662736 47.3116224,27.7016759 45.5753307,20.4774999 C44.4693514,15.8758603 41.3163028,8.45625551 41.3163028,8.45625551 L37.7833549,9.28442529 C37.7833549,9.28442529 39.7143542,16.3007729 37.8874276,22.7729189 C37.1012719,25.5579867 36.2079609,28.9023794 32.5941101,32.5491306 C29.067717,36.1076279 22.8445188,37.0921766 17.7948484,36.9759371 C13.0538855,36.8668037 9.78078107,32.5576673 8.71340931,30.4408465 C6.08378179,25.2257468 5.95768673,20.5667926 5.95768673,20.5667926 L2.23587752,20.1321695 Z" id="Fill-7" fill="#5598FF"></path>
                    <path d="M34.8246489,34.7566888 C35.5787595,37.4101968 32.1308816,40.7138624 27.1237071,42.136758 C22.1165327,43.5590527 17.4458538,42.5615836 16.6917432,39.9086765 C15.9376325,37.2551685 19.3867123,33.950902 24.3938867,32.5286073 C29.4010611,31.1057117 34.0711391,32.1031808 34.8246489,34.7566888" id="Fill-10" fill="#FFAC2C"></path>
                    <g id="Group-14" transform="translate(15.623009, 32.405125)">
                        <mask id="mask-29" fill="white">
                            <use xlink:href="#path-28"></use>
                        </mask>
                        <g id="Clip-13"></g>
                        <path d="M0.658089217,11.6667825 C1.1303848,15.6897074 1.78234499,17.3601676 6.03360614,19.7018163 C12.6721833,23.3582014 20.8778684,19.024619 23.0638879,12.145087 C24.1611039,8.68939753 22.7057605,7.05438953 21.6265711,4.92725674 C20.4704684,2.64990271 19.2296409,0.870682319 17.4191745,0.352719476 C15.3016559,-0.252371687 16.9276506,2.16138323 10.1352469,4.34439832 C3.28335564,6.54664173 2.37842288,3.50496202 0.841960018,6.52741341 C0.369664433,7.45578069 0.446577708,9.86953561 0.658089217,11.6667825" id="Fill-12" fill="#0D264C" mask="url(#mask-29)"></path>
                    </g>
                </g>
                <g id="Page-1" transform="translate(148.000000, 462.500000) rotate(65.000000) translate(-148.000000, -462.500000) translate(125.000000, 436.000000)">
                    <path d="M8.24818714,13.2712544 C8.24818714,13.2712544 8.67320813,11.4376256 8.04612798,10.2995913 C7.41904784,9.16155695 6.71320753,7.89184363 6.05456789,8.22500114 C5.39592824,8.55815865 6.18926858,9.82100732 6.18926858,9.82100732 C6.18926858,9.82100732 3.37413407,7.07476876 2.4309052,7.66706024 C1.48767633,8.25935172 1.72405708,9.7497541 3.14717979,11.7601773 C4.5703025,13.7706004 5.98140854,14.7739243 5.98140854,14.7739243 L8.24818714,13.2712544 Z" id="Fill-4" fill="#FFAC2C" transform="translate(5.127319, 11.178655) rotate(42.000000) translate(-5.127319, -11.178655) "></path>
                    <path d="M32.3404872,5.97473361 C32.3404872,5.97473361 32.4509789,5.31153118 31.9557616,3.19761487 C31.6256168,1.78833732 31.1032402,1.01647203 30.3886318,0.88201899 C30.0851591,1.78088435 29.9334227,2.23031703 29.9334227,2.23031703 C29.9334227,2.23031703 25.9014337,0.642410362 25.1809475,1.40628677 C24.4604614,2.17016318 25.4752959,3.69552477 27.1540135,5.3357704 C28.8327311,6.97601602 30.0737086,7.47740345 30.0737086,7.47740345 L32.3404872,5.97473361 Z" id="Fill-4" fill="#FFAC2C" transform="translate(28.648477, 4.179711) scale(-1, 1) rotate(-277.000000) translate(-28.648477, -4.179711) "></path>
                    <path d="M3.1591883,13.9092148 C1.80258885,16.5724654 -0.174474918,30.744016 7.6615902,38.4957403 C14.6965178,45.4549498 32.2684992,47.0329852 42.5038408,35.3083283 C48.3139099,28.6531637 45.3466456,19.6068837 40.9847322,13.6492851 C36.9763365,8.17452873 31.7597379,5.49976398 31.7597379,5.49976398 L29.5719888,8.32407289 C29.5719888,8.32407289 35.2878686,12.608125 36.1576837,18.2764549 C36.4784932,20.3670757 35.9271628,23.9806022 33.3406326,26.6234604 C29.9566217,30.0811663 23.8163433,32.3580596 18.936892,32.2457384 C14.355742,32.1402838 11.2698377,28.4303095 9.77973271,25.9124511 C6.27792019,19.9953725 6.70846792,14.4503348 6.70846792,14.4503348 L3.1591883,13.9092148 Z" id="Fill-7" fill="#5598FF"></path>
                    <path d="M35.3926358,30.1012986 C36.1213261,32.6653597 32.7896725,35.8576621 27.9512847,37.2325934 C23.1128968,38.6069441 18.5996617,37.6430987 17.8709713,35.0796183 C17.142281,32.5155572 20.4750958,29.3226741 25.3134837,27.9483235 C30.1518715,26.5733922 34.664526,27.5372376 35.3926358,30.1012986" id="Fill-10" fill="#FFAC2C"></path>
                    <path d="M40.3943265,30.249904 C38.5430884,25.7973929 34.9968407,24.2399473 34.5793098,27.0769455 C34.4230813,28.1352896 34.2309065,29.4659966 33.9537047,30.2823939 C32.3907288,29.3436406 30.5408733,28.8459217 28.5831786,28.9523782 C24.3498022,29.181882 20.9189976,32.1647395 19.9325462,36.0697596 C18.29353,35.8112223 17.4992535,34.3927232 15.7530894,34.4404213 C13.5105889,34.5005623 12.6776008,41.6345343 18.1013552,44.2192167 C18.083382,44.2192167 18.180852,48.5853182 23.558982,50.6114492 C28.7179775,52.5539358 32.5732258,49.0318827 32.5732258,49.0318827 C32.5732258,49.0318827 37.3706837,49.9416024 39.770104,44.6395127 C41.8646714,40.0100349 40.7275217,36.5073376 40.7275217,36.5073376 C40.7275217,36.5073376 41.9469332,33.9841789 40.3943265,30.249904" id="Fill-1" fill="#0D264C" transform="translate(27.603230, 38.422029) rotate(4.000000) translate(-27.603230, -38.422029) "></path>
                </g>
            </g>
        </g>
    </g>
</svg>